<svg preserveAspectRatio="none" overflow="visible" style="display: block;" width="332" height="300" viewBox="0 0 332 300" fill="none" xmlns="http://www.w3.org/2000/svg">
<g id="Visual / Home / Signal Field">
<circle id="Ellipse" cx="175" cy="145" r="124.5" stroke="#D1C9BA" stroke-opacity="0.42"/>
<circle id="Ellipse_2" cx="175" cy="145" r="82.5" stroke="#D1C9BA" stroke-opacity="0.34"/>
<circle id="Ellipse_3" cx="175" cy="145" r="44.5" stroke="#D1C9BA" stroke-opacity="0.3"/>
<rect id="Rectangle" x="18" y="150" width="296" height="1" fill="#D1C9BA" fill-opacity="0.26"/>
<rect id="Rectangle_2" x="175" y="16" width="1" height="268" fill="#D1C9BA" fill-opacity="0.22"/>
<circle id="Ellipse_4" cx="68.3543" cy="129.792" r="2" fill="#D1C9BA" fill-opacity="0.55"/>
<circle id="Ellipse_5" cx="72.8317" cy="111.659" r="2" fill="#D1C9BA" fill-opacity="0.55"/>
<circle id="Ellipse_6" cx="80.3123" cy="94.5453" r="2" fill="#D1C9BA" fill-opacity="0.55"/>
<circle id="Ellipse_7" cx="90.5805" cy="78.9436" r="2" fill="#D1C9BA" fill-opacity="0.55"/>
<circle id="Ellipse_8" cx="103.34" cy="65.304" r="2" fill="#D1C9BA" fill-opacity="0.55"/>
<circle id="Ellipse_9" cx="118.224" cy="54.0197" r="2" fill="#D1C9BA" fill-opacity="0.55"/>
<circle id="Ellipse_10" cx="134.801" cy="45.4161" r="2" fill="#D1C9BA" fill-opacity="0.55"/>
<circle id="Ellipse_11" cx="152.596" cy="39.7412" r="2" fill="#D1C9BA" fill-opacity="0.55"/>
<circle id="Ellipse_12" cx="171.094" cy="37.1587" r="2" fill="#D1C9BA" fill-opacity="0.55"/>
<rect id="Rectangle_3" x="250" y="208" width="2" height="12" fill="#D1C9BA" fill-opacity="0.42"/>
<rect id="Rectangle_4" x="260" y="202" width="2" height="18" fill="#D1C9BA" fill-opacity="0.42"/>
<rect id="Rectangle_5" x="270" y="196" width="2" height="24" fill="#D1C9BA" fill-opacity="0.42"/>
<rect id="Rectangle_6" x="280" y="190" width="2" height="30" fill="#D1C9BA" fill-opacity="0.42"/>
<rect id="Rectangle_7" x="290" y="184" width="2" height="36" fill="#D1C9BA" fill-opacity="0.42"/>
<rect id="Rectangle_8" x="300" y="178" width="2" height="42" fill="#1A57DE"/>
<circle id="Ellipse_13" cx="232" cy="92" r="4" fill="#1A57DE"/>
<circle id="Ellipse_14" cx="232" cy="92" r="13" fill="#E6F0FF" fill-opacity="0.22"/>
<circle id="Ellipse_15" cx="86" cy="215" r="3" fill="#D1C9BA" fill-opacity="0.65"/>
</g>
</svg>
